<svg id="visual" viewBox="0 0 1800 150" width="1800" height="150" xmlns="http://www.w3.org/2000/svg" xmlns:xlink="http://www.w3.org/1999/xlink" version="1.1"><path d="M0 57L21.5 60.8C43 64.7 86 72.3 128.8 79.8C171.7 87.3 214.3 94.7 257.2 91.8C300 89 343 76 385.8 66C428.7 56 471.3 49 514.2 55.5C557 62 600 82 642.8 93C685.7 104 728.3 106 771.2 106.7C814 107.3 857 106.7 900 102C943 97.3 986 88.7 1028.8 85.5C1071.7 82.3 1114.3 84.7 1157.2 87.2C1200 89.7 1243 92.3 1285.8 87.7C1328.7 83 1371.3 71 1414.2 64.7C1457 58.3 1500 57.7 1542.8 60.5C1585.7 63.3 1628.3 69.7 1671.2 76.5C1714 83.3 1757 90.7 1778.5 94.3L1800 98L1800 0L1778.5 0C1757 0 1714 0 1671.2 0C1628.3 0 1585.7 0 1542.8 0C1500 0 1457 0 1414.2 0C1371.3 0 1328.7 0 1285.8 0C1243 0 1200 0 1157.2 0C1114.3 0 1071.7 0 1028.8 0C986 0 943 0 900 0C857 0 814 0 771.2 0C728.3 0 685.7 0 642.8 0C600 0 557 0 514.2 0C471.3 0 428.7 0 385.8 0C343 0 300 0 257.2 0C214.3 0 171.7 0 128.8 0C86 0 43 0 21.5 0L0 0Z" fill="#B7003F" stroke-linecap="round" stroke-linejoin="miter"></path></svg>